<?xml version="1.0" standalone="no"?><!DOCTYPE svg PUBLIC "-//W3C//DTD SVG 1.1//EN" "http://www.w3.org/Graphics/SVG/1.1/DTD/svg11.dtd"><svg t="1597223871300" class="icon" viewBox="0 0 1024 1024" version="1.1" xmlns="http://www.w3.org/2000/svg" p-id="5862" xmlns:xlink="http://www.w3.org/1999/xlink" width="200" height="200"><defs><style type="text/css"></style></defs><path d="M512 62C263 62 62 263 62 512s201 450 450 450 450-201 450-450S761 62 512 62m189 639c-12 12-33 12-45 0L512 557 368 701c-12 12-33 12-45 0-12-12-12-33 0-45L467 512 323 368c-12-12-12-33 0-45 12-12 33-12 45 0L512 467l144-144c12-12 33-12 45 0 12 12 12 33 0 45L557 512l144 144c15 12 15 33 0 45m0 0z" fill="#cdcdcd" p-id="5863" data-spm-anchor-id="a313x.7781069.0.i6" class=""></path></svg>