<?xml version="1.0" standalone="no"?><!DOCTYPE svg PUBLIC "-//W3C//DTD SVG 1.1//EN" "http://www.w3.org/Graphics/SVG/1.1/DTD/svg11.dtd"><svg t="1597222774285" class="icon" viewBox="0 0 1024 1024" version="1.1" xmlns="http://www.w3.org/2000/svg" p-id="11572" xmlns:xlink="http://www.w3.org/1999/xlink" width="200" height="200"><defs><style type="text/css"></style></defs><path d="M850.922 310.244c-8.883-9.003-21.353-14.297-33.887-14.297-12.533 0-25.005 5.233-33.886 14.297-8.882 9.065-14.053 21.719-14.053 34.495h95.88c-0.062-12.775-5.173-25.43-14.054-34.495zM513.396 751.556c105.736 0 191.76-87.544 191.76-195.226s-86.025-195.225-191.76-195.225c-105.733 0-191.758 87.543-191.758 195.225 0.001 107.622 85.964 195.226 191.758 195.226z m0-325.417c70.511 0 127.82 58.403 127.82 130.191 0 71.788-57.37 130.192-127.82 130.192-70.509 0-127.818-58.404-127.818-130.192-0.06-71.848 57.309-130.191 127.818-130.191z m351.518-227.835H513.396c-17.642 0-31.939 14.601-31.939 32.548s14.297 32.548 31.939 32.548h351.579c17.642 0 31.939 14.6 31.939 32.547v520.645c0 17.946-14.297 32.547-31.939 32.547H161.82c-17.582 0-31.94-14.601-31.94-32.547V295.947c0-17.947 14.358-32.547 31.94-32.547h95.88c17.642 0 31.939-14.601 31.939-32.548s-14.297-32.548-31.939-32.548h-95.88c-52.868 0-95.88 43.802-95.88 97.643v520.645c0 53.84 43.012 97.643 95.88 97.643h703.094c52.868 0 95.88-43.803 95.88-97.643V295.947c0.06-53.841-43.013-97.643-95.88-97.643z m-575.275-22.327h178.982c12.35 0 22.388-10.038 22.388-22.388v-22.388c0-12.35-10.038-22.388-22.388-22.388H289.639c-12.35 0-22.389 10.038-22.389 22.388v22.388c0.061 12.35 10.039 22.388 22.389 22.388z" fill="#cdcdcd" p-id="11573"></path></svg>