<?xml version="1.0" standalone="no"?><!DOCTYPE svg PUBLIC "-//W3C//DTD SVG 1.1//EN" "http://www.w3.org/Graphics/SVG/1.1/DTD/svg11.dtd"><svg t="1597205618827" class="icon" viewBox="0 0 1110 1024" version="1.1" xmlns="http://www.w3.org/2000/svg" p-id="8586" xmlns:xlink="http://www.w3.org/1999/xlink" width="216.796875" height="200"><defs><style type="text/css"></style></defs><path d="M958.915254 1024H733.288136a43.389831 43.389831 0 0 1 0-86.779661h225.627118a21.694915 21.694915 0 0 0 21.694915-21.694915V671.457627a43.389831 43.389831 0 0 1 86.779662 0v244.067797a108.474576 108.474576 0 0 1-108.474577 108.474576zM1024 366.644068a43.389831 43.389831 0 0 1-43.389831-43.389831V108.474576a21.694915 21.694915 0 0 0-21.694915-21.694915H733.288136a43.389831 43.389831 0 0 1 0-86.779661h225.627118a108.474576 108.474576 0 0 1 108.474577 108.474576v214.779661a43.389831 43.389831 0 0 1-43.389831 43.389831zM86.779661 366.644068a43.389831 43.389831 0 0 1-43.38983-43.389831V108.474576A108.474576 108.474576 0 0 1 151.864407 0h221.288135a43.389831 43.389831 0 0 1 0 86.779661H151.864407a21.694915 21.694915 0 0 0-21.694915 21.694915v214.779661a43.389831 43.389831 0 0 1-43.389831 43.389831zM373.152542 1024H151.864407A108.474576 108.474576 0 0 1 43.389831 915.525424V671.457627a43.389831 43.389831 0 0 1 86.779661 0v244.067797a21.694915 21.694915 0 0 0 21.694915 21.694915h221.288135a43.389831 43.389831 0 0 1 0 86.779661zM1067.389831 545.627119H43.389831a43.389831 43.389831 0 0 1 0-86.779661h1024a43.389831 43.389831 0 0 1 0 86.779661z" fill="" p-id="8587"></path></svg>