<?xml version="1.0" standalone="no"?><!DOCTYPE svg PUBLIC "-//W3C//DTD SVG 1.1//EN" "http://www.w3.org/Graphics/SVG/1.1/DTD/svg11.dtd"><svg t="1594195140878" class="icon" viewBox="0 0 1024 1024" version="1.1" xmlns="http://www.w3.org/2000/svg" p-id="7152" xmlns:xlink="http://www.w3.org/1999/xlink" width="200" height="200"><defs><style type="text/css"></style></defs><path d="M431.146667 491.733333H188.586667A60.586667 60.586667 0 0 1 128 431.146667V188.586667A60.586667 60.586667 0 0 1 188.586667 128h242.56a60.586667 60.586667 0 0 1 60.586666 60.586667v242.56a60.586667 60.586667 0 0 1-60.586666 60.586666zM188.586667 168.32a21.333333 21.333333 0 0 0-21.333334 21.333333v241.493334a21.333333 21.333333 0 0 0 21.333334 20.266666h242.56a21.333333 21.333333 0 0 0 20.266666-20.266666V188.586667a21.333333 21.333333 0 0 0-20.266666-21.333334zM431.146667 896H188.586667A60.586667 60.586667 0 0 1 128 835.413333V592.853333A60.586667 60.586667 0 0 1 188.586667 533.333333h242.56a60.586667 60.586667 0 0 1 60.586666 60.586667v241.493333A60.586667 60.586667 0 0 1 431.146667 896zM188.586667 572.586667a21.333333 21.333333 0 0 0-21.333334 20.266666v242.56a21.333333 21.333333 0 0 0 21.333334 21.333334h242.56a21.333333 21.333333 0 0 0 20.266666-21.333334V592.853333a21.333333 21.333333 0 0 0-20.266666-20.266666zM835.413333 896H592.853333A60.586667 60.586667 0 0 1 533.333333 835.413333V592.853333A60.586667 60.586667 0 0 1 592.853333 533.333333h242.56A60.586667 60.586667 0 0 1 896 592.853333v242.56A60.586667 60.586667 0 0 1 835.413333 896zM592.853333 572.586667a21.333333 21.333333 0 0 0-20.266666 20.266666v242.56a21.333333 21.333333 0 0 0 20.266666 21.333334h242.56a21.333333 21.333333 0 0 0 21.333334-21.333334V592.853333a21.333333 21.333333 0 0 0-21.333334-20.266666zM710.186667 490.666667a181.333333 181.333333 0 1 1 181.333333-181.333334 181.546667 181.546667 0 0 1-181.333333 181.333334z m0-320a138.666667 138.666667 0 1 0 138.666666 138.666666 138.88 138.88 0 0 0-138.666666-138.666666z" p-id="7153" fill="#d81e06"></path></svg>