<?xml version="1.0" standalone="no"?><!DOCTYPE svg PUBLIC "-//W3C//DTD SVG 1.1//EN" "http://www.w3.org/Graphics/SVG/1.1/DTD/svg11.dtd"><svg t="1594194862396" class="icon" viewBox="0 0 1024 1024" version="1.1" xmlns="http://www.w3.org/2000/svg" p-id="4389" xmlns:xlink="http://www.w3.org/1999/xlink" width="200" height="200"><defs><style type="text/css"></style></defs><path d="M512 512a192 192 0 1 0-192-192 192 192 0 0 0 192 192z m0-341.333333a149.333333 149.333333 0 1 1-149.333333 149.333333 149.333333 149.333333 0 0 1 149.333333-149.333333zM677.76 528.853333a90.666667 90.666667 0 0 0-67.626667 4.48 234.666667 234.666667 0 0 1-196.266666 0 90.666667 90.666667 0 0 0-67.626667-4.053333A320 320 0 0 0 128 832a64 64 0 0 0 64 64h640a64 64 0 0 0 64-64 320 320 0 0 0-218.24-303.146667zM832 853.333333H192a21.333333 21.333333 0 0 1-21.333333-21.333333 277.333333 277.333333 0 0 1 189.44-262.613333 42.666667 42.666667 0 0 1 14.72-2.56 52.48 52.48 0 0 1 21.333333 4.693333 274.986667 274.986667 0 0 0 232.106667 0 48.213333 48.213333 0 0 1 36.053333-2.133333A277.333333 277.333333 0 0 1 853.333333 832a21.333333 21.333333 0 0 1-21.333333 21.333333z" p-id="4390" fill="#d81e06"></path></svg>