<?xml version="1.0" standalone="no"?><!DOCTYPE svg PUBLIC "-//W3C//DTD SVG 1.1//EN" "http://www.w3.org/Graphics/SVG/1.1/DTD/svg11.dtd"><svg t="1597039469082" class="icon" viewBox="0 0 1024 1024" version="1.1" xmlns="http://www.w3.org/2000/svg" p-id="22665" xmlns:xlink="http://www.w3.org/1999/xlink" width="200" height="200"><defs><style type="text/css"></style></defs><path d="M750.933333 201.728h-124.586666v130.730667H887.466667a136.533333 136.533333 0 0 0-136.533334-130.730667zM397.653333 201.728H273.066667a136.533333 136.533333 0 0 0-136.533334 130.730667h261.12zM626.346667 397.653333v136.533334a34.133333 34.133333 0 0 1-34.133334 34.133333 36.181333 36.181333 0 0 1-17.066666-4.437333L512 528.384l-63.146667 36.181333a34.133333 34.133333 0 0 1-46.762666-12.970666 35.84 35.84 0 0 1-4.437334-16.725334v-136.533333H136.533333v288.085333a136.533333 136.533333 0 0 0 136.533334 136.533334h477.866666a136.533333 136.533333 0 0 0 136.533334-136.533334v-288.768zM299.690667 512H234.496a34.133333 34.133333 0 1 1 0-65.194667h65.194667a34.133333 34.133333 0 1 1 0 65.194667z" fill="#fe928f" p-id="22666" data-spm-anchor-id="a313x.7781069.0.i31" class="selected"></path></svg>