<?xml version="1.0" standalone="no"?><!DOCTYPE svg PUBLIC "-//W3C//DTD SVG 1.1//EN" "http://www.w3.org/Graphics/SVG/1.1/DTD/svg11.dtd"><svg t="1597044370372" class="icon" viewBox="0 0 1024 1024" version="1.1" xmlns="http://www.w3.org/2000/svg" p-id="10509" xmlns:xlink="http://www.w3.org/1999/xlink" width="200" height="200"><defs><style type="text/css"></style></defs><path d="M912 211.9v66.7c0 9-3.3 16.8-9.9 23.4-6.6 6.6-14.5 9.9-23.4 9.9H145.3c-9 0-16.8-3.3-23.4-9.9-6.6-6.6-9.9-14.4-9.9-23.4v-66.7c0-9 3.3-16.8 9.9-23.4 6.6-6.6 14.4-9.9 23.4-9.9h733.4c9 0 16.8 3.3 23.4 9.9 6.6 6.6 9.9 14.4 9.9 23.4z m0 266.6v66.7c0 9-3.3 16.8-9.9 23.4-6.6 6.6-14.5 9.9-23.4 9.9H145.3c-9 0-16.8-3.3-23.4-9.9-6.6-6.6-9.9-14.4-9.9-23.4v-66.7c0-9 3.3-16.8 9.9-23.4 6.6-6.6 14.4-9.9 23.4-9.9h733.4c9 0 16.8 3.3 23.4 9.9s9.9 14.5 9.9 23.4z m0 266.8V812c0 9-3.3 16.8-9.9 23.4-6.6 6.6-14.5 9.9-23.4 9.9H145.3c-9 0-16.8-3.3-23.4-9.9-6.6-6.6-9.9-14.4-9.9-23.4v-66.7c0-9 3.3-16.8 9.9-23.4 6.6-6.6 14.4-9.9 23.4-9.9h733.4c9 0 16.8 3.3 23.4 9.9s9.9 14.3 9.9 23.4z" fill="#2c2c2c" p-id="10510"></path></svg>