<?xml version="1.0" standalone="no"?><!DOCTYPE svg PUBLIC "-//W3C//DTD SVG 1.1//EN" "http://www.w3.org/Graphics/SVG/1.1/DTD/svg11.dtd"><svg t="1597047554431" class="icon" viewBox="0 0 1024 1024" version="1.1" xmlns="http://www.w3.org/2000/svg" p-id="13145" xmlns:xlink="http://www.w3.org/1999/xlink" width="200" height="200"><defs><style type="text/css"></style></defs><path d="M124.8 940.8c-12.8 0-25.6-9.6-32-22.4s-3.2-28.8 6.4-38.4c22.4-22.4 44.8-57.6 60.8-86.4-83.2-80-131.2-179.2-131.2-288 3.2-230.4 217.6-422.4 483.2-422.4s480 188.8 480 422.4-214.4 422.4-480 422.4c-54.4 0-108.8-9.6-163.2-25.6-57.6 16-156.8 38.4-224 38.4zM512 153.6c-227.2 0-409.6 156.8-409.6 352 0 96 44.8 185.6 128 252.8 12.8 9.6 16 28.8 9.6 44.8-9.6 16-22.4 38.4-35.2 57.6 54.4-9.6 112-22.4 137.6-28.8 6.4-3.2 12.8 0 19.2 0 48 16 99.2 25.6 150.4 25.6 227.2 0 409.6-156.8 409.6-352s-182.4-352-409.6-352z" p-id="13146" fill="#2c2c2c"></path><path d="M288 569.6c-32 0-57.6-25.6-57.6-57.6s25.6-57.6 57.6-57.6 57.6 25.6 57.6 57.6-22.4 57.6-57.6 57.6zM512 569.6c-32 0-57.6-25.6-57.6-57.6s25.6-57.6 57.6-57.6 57.6 25.6 57.6 57.6-25.6 57.6-57.6 57.6zM736 569.6c-32 0-57.6-25.6-57.6-57.6s25.6-57.6 57.6-57.6 57.6 25.6 57.6 57.6-25.6 57.6-57.6 57.6z" p-id="13147" fill="#2c2c2c"></path></svg>